<mxfile host="app.diagrams.net" modified="2023-07-30T16:25:10.928Z" agent="Mozilla/5.0 (Windows NT 10.0; Win64; x64) AppleWebKit/537.36 (KHTML, like Gecko) Chrome/114.0.0.0 Safari/537.36" etag="efOxXR4J6cBXgpd0CdVb" version="21.5.2" type="github" pages="4">
  <diagram name="General" id="b5b7bab2-c9e2-2cf4-8b2a-24fd1a2a6d21">
    <mxGraphModel dx="1916" dy="948" grid="1" gridSize="10" guides="1" tooltips="1" connect="1" arrows="1" fold="1" page="1" pageScale="1" pageWidth="1169" pageHeight="827" background="none" math="0" shadow="0">
      <root>
        <mxCell id="0" />
        <mxCell id="1" parent="0" />
        <mxCell id="n5aeBwHTUUPjWI67WGx6-23" style="rounded=0;orthogonalLoop=1;jettySize=auto;html=1;exitX=0;exitY=0.3333333333333333;exitDx=0;exitDy=0;exitPerimeter=0;entryX=0.5;entryY=1;entryDx=0;entryDy=0;" edge="1" parent="1" source="n5aeBwHTUUPjWI67WGx6-1" target="n5aeBwHTUUPjWI67WGx6-18">
          <mxGeometry relative="1" as="geometry" />
        </mxCell>
        <mxCell id="n5aeBwHTUUPjWI67WGx6-24" value="" style="rounded=0;orthogonalLoop=1;jettySize=auto;html=1;exitX=1;exitY=0.3333333333333333;exitDx=0;exitDy=0;exitPerimeter=0;" edge="1" parent="1" source="n5aeBwHTUUPjWI67WGx6-1" target="n5aeBwHTUUPjWI67WGx6-13">
          <mxGeometry relative="1" as="geometry" />
        </mxCell>
        <mxCell id="n5aeBwHTUUPjWI67WGx6-26" style="rounded=0;orthogonalLoop=1;jettySize=auto;html=1;" edge="1" parent="1" source="n5aeBwHTUUPjWI67WGx6-1" target="n5aeBwHTUUPjWI67WGx6-4">
          <mxGeometry relative="1" as="geometry" />
        </mxCell>
        <mxCell id="n5aeBwHTUUPjWI67WGx6-27" style="rounded=0;orthogonalLoop=1;jettySize=auto;html=1;" edge="1" parent="1" source="n5aeBwHTUUPjWI67WGx6-1" target="n5aeBwHTUUPjWI67WGx6-12">
          <mxGeometry relative="1" as="geometry" />
        </mxCell>
        <mxCell id="n5aeBwHTUUPjWI67WGx6-28" style="rounded=0;orthogonalLoop=1;jettySize=auto;html=1;entryX=0;entryY=0.5;entryDx=0;entryDy=0;" edge="1" parent="1" source="n5aeBwHTUUPjWI67WGx6-1" target="n5aeBwHTUUPjWI67WGx6-21">
          <mxGeometry relative="1" as="geometry" />
        </mxCell>
        <mxCell id="n5aeBwHTUUPjWI67WGx6-29" style="rounded=0;orthogonalLoop=1;jettySize=auto;html=1;entryX=0;entryY=0.5;entryDx=0;entryDy=0;exitX=0.5;exitY=0.5;exitDx=0;exitDy=0;exitPerimeter=0;" edge="1" parent="1" source="n5aeBwHTUUPjWI67WGx6-1" target="n5aeBwHTUUPjWI67WGx6-5">
          <mxGeometry relative="1" as="geometry" />
        </mxCell>
        <mxCell id="n5aeBwHTUUPjWI67WGx6-30" style="rounded=0;orthogonalLoop=1;jettySize=auto;html=1;" edge="1" parent="1" source="n5aeBwHTUUPjWI67WGx6-1" target="n5aeBwHTUUPjWI67WGx6-11">
          <mxGeometry relative="1" as="geometry" />
        </mxCell>
        <mxCell id="n5aeBwHTUUPjWI67WGx6-31" style="rounded=0;orthogonalLoop=1;jettySize=auto;html=1;" edge="1" parent="1" source="n5aeBwHTUUPjWI67WGx6-1" target="n5aeBwHTUUPjWI67WGx6-10">
          <mxGeometry relative="1" as="geometry" />
        </mxCell>
        <mxCell id="n5aeBwHTUUPjWI67WGx6-32" style="rounded=0;orthogonalLoop=1;jettySize=auto;html=1;" edge="1" parent="1" source="n5aeBwHTUUPjWI67WGx6-1" target="n5aeBwHTUUPjWI67WGx6-9">
          <mxGeometry relative="1" as="geometry" />
        </mxCell>
        <mxCell id="n5aeBwHTUUPjWI67WGx6-33" style="rounded=0;orthogonalLoop=1;jettySize=auto;html=1;" edge="1" parent="1" source="n5aeBwHTUUPjWI67WGx6-1" target="n5aeBwHTUUPjWI67WGx6-15">
          <mxGeometry relative="1" as="geometry" />
        </mxCell>
        <mxCell id="n5aeBwHTUUPjWI67WGx6-34" style="rounded=0;orthogonalLoop=1;jettySize=auto;html=1;" edge="1" parent="1" source="n5aeBwHTUUPjWI67WGx6-1" target="n5aeBwHTUUPjWI67WGx6-14">
          <mxGeometry relative="1" as="geometry" />
        </mxCell>
        <mxCell id="n5aeBwHTUUPjWI67WGx6-35" style="rounded=0;orthogonalLoop=1;jettySize=auto;html=1;" edge="1" parent="1" source="n5aeBwHTUUPjWI67WGx6-1" target="n5aeBwHTUUPjWI67WGx6-8">
          <mxGeometry relative="1" as="geometry" />
        </mxCell>
        <mxCell id="n5aeBwHTUUPjWI67WGx6-36" style="rounded=0;orthogonalLoop=1;jettySize=auto;html=1;entryX=0.5;entryY=0;entryDx=0;entryDy=0;" edge="1" parent="1" source="n5aeBwHTUUPjWI67WGx6-1" target="n5aeBwHTUUPjWI67WGx6-7">
          <mxGeometry relative="1" as="geometry" />
        </mxCell>
        <mxCell id="n5aeBwHTUUPjWI67WGx6-37" style="rounded=0;orthogonalLoop=1;jettySize=auto;html=1;" edge="1" parent="1" source="n5aeBwHTUUPjWI67WGx6-1" target="n5aeBwHTUUPjWI67WGx6-6">
          <mxGeometry relative="1" as="geometry" />
        </mxCell>
        <mxCell id="n5aeBwHTUUPjWI67WGx6-38" style="rounded=0;orthogonalLoop=1;jettySize=auto;html=1;entryX=0.5;entryY=0;entryDx=0;entryDy=0;" edge="1" parent="1" source="n5aeBwHTUUPjWI67WGx6-1" target="n5aeBwHTUUPjWI67WGx6-20">
          <mxGeometry relative="1" as="geometry" />
        </mxCell>
        <mxCell id="n5aeBwHTUUPjWI67WGx6-39" style="rounded=0;orthogonalLoop=1;jettySize=auto;html=1;entryX=0.5;entryY=0;entryDx=0;entryDy=0;" edge="1" parent="1" source="n5aeBwHTUUPjWI67WGx6-1" target="n5aeBwHTUUPjWI67WGx6-19">
          <mxGeometry relative="1" as="geometry" />
        </mxCell>
        <mxCell id="n5aeBwHTUUPjWI67WGx6-40" style="rounded=0;orthogonalLoop=1;jettySize=auto;html=1;entryX=1;entryY=0.5;entryDx=0;entryDy=0;" edge="1" parent="1" source="n5aeBwHTUUPjWI67WGx6-1" target="n5aeBwHTUUPjWI67WGx6-17">
          <mxGeometry relative="1" as="geometry" />
        </mxCell>
        <mxCell id="n5aeBwHTUUPjWI67WGx6-1" value="Tuteur" style="shape=umlActor;verticalLabelPosition=bottom;verticalAlign=top;html=1;outlineConnect=0;" vertex="1" parent="1">
          <mxGeometry x="550" y="250" width="30" height="60" as="geometry" />
        </mxCell>
        <mxCell id="n5aeBwHTUUPjWI67WGx6-22" style="rounded=0;orthogonalLoop=1;jettySize=auto;html=1;entryX=0.5;entryY=1;entryDx=0;entryDy=0;" edge="1" parent="1" source="n5aeBwHTUUPjWI67WGx6-2" target="n5aeBwHTUUPjWI67WGx6-18">
          <mxGeometry relative="1" as="geometry" />
        </mxCell>
        <mxCell id="n5aeBwHTUUPjWI67WGx6-41" style="rounded=0;orthogonalLoop=1;jettySize=auto;html=1;" edge="1" parent="1" source="n5aeBwHTUUPjWI67WGx6-2" target="n5aeBwHTUUPjWI67WGx6-3">
          <mxGeometry relative="1" as="geometry" />
        </mxCell>
        <mxCell id="n5aeBwHTUUPjWI67WGx6-42" style="rounded=0;orthogonalLoop=1;jettySize=auto;html=1;" edge="1" parent="1" source="n5aeBwHTUUPjWI67WGx6-2" target="n5aeBwHTUUPjWI67WGx6-13">
          <mxGeometry relative="1" as="geometry" />
        </mxCell>
        <mxCell id="n5aeBwHTUUPjWI67WGx6-43" style="rounded=0;orthogonalLoop=1;jettySize=auto;html=1;" edge="1" parent="1" source="n5aeBwHTUUPjWI67WGx6-2" target="n5aeBwHTUUPjWI67WGx6-4">
          <mxGeometry relative="1" as="geometry" />
        </mxCell>
        <mxCell id="n5aeBwHTUUPjWI67WGx6-44" style="rounded=0;orthogonalLoop=1;jettySize=auto;html=1;" edge="1" parent="1" source="n5aeBwHTUUPjWI67WGx6-2" target="n5aeBwHTUUPjWI67WGx6-12">
          <mxGeometry relative="1" as="geometry" />
        </mxCell>
        <mxCell id="n5aeBwHTUUPjWI67WGx6-45" style="rounded=0;orthogonalLoop=1;jettySize=auto;html=1;" edge="1" parent="1" source="n5aeBwHTUUPjWI67WGx6-2" target="n5aeBwHTUUPjWI67WGx6-21">
          <mxGeometry relative="1" as="geometry" />
        </mxCell>
        <mxCell id="n5aeBwHTUUPjWI67WGx6-46" style="rounded=0;orthogonalLoop=1;jettySize=auto;html=1;" edge="1" parent="1" source="n5aeBwHTUUPjWI67WGx6-2" target="n5aeBwHTUUPjWI67WGx6-11">
          <mxGeometry relative="1" as="geometry" />
        </mxCell>
        <mxCell id="n5aeBwHTUUPjWI67WGx6-47" style="rounded=0;orthogonalLoop=1;jettySize=auto;html=1;" edge="1" parent="1" source="n5aeBwHTUUPjWI67WGx6-2" target="n5aeBwHTUUPjWI67WGx6-9">
          <mxGeometry relative="1" as="geometry" />
        </mxCell>
        <mxCell id="n5aeBwHTUUPjWI67WGx6-48" style="rounded=0;orthogonalLoop=1;jettySize=auto;html=1;" edge="1" parent="1" source="n5aeBwHTUUPjWI67WGx6-2" target="n5aeBwHTUUPjWI67WGx6-10">
          <mxGeometry relative="1" as="geometry" />
        </mxCell>
        <mxCell id="n5aeBwHTUUPjWI67WGx6-49" style="rounded=0;orthogonalLoop=1;jettySize=auto;html=1;entryX=0.5;entryY=0;entryDx=0;entryDy=0;" edge="1" parent="1" source="n5aeBwHTUUPjWI67WGx6-2" target="n5aeBwHTUUPjWI67WGx6-14">
          <mxGeometry relative="1" as="geometry" />
        </mxCell>
        <mxCell id="n5aeBwHTUUPjWI67WGx6-50" style="rounded=0;orthogonalLoop=1;jettySize=auto;html=1;" edge="1" parent="1" source="n5aeBwHTUUPjWI67WGx6-2" target="n5aeBwHTUUPjWI67WGx6-15">
          <mxGeometry relative="1" as="geometry" />
        </mxCell>
        <mxCell id="n5aeBwHTUUPjWI67WGx6-51" style="rounded=0;orthogonalLoop=1;jettySize=auto;html=1;" edge="1" parent="1" source="n5aeBwHTUUPjWI67WGx6-2" target="n5aeBwHTUUPjWI67WGx6-7">
          <mxGeometry relative="1" as="geometry" />
        </mxCell>
        <mxCell id="n5aeBwHTUUPjWI67WGx6-52" style="rounded=0;orthogonalLoop=1;jettySize=auto;html=1;entryX=1;entryY=0.5;entryDx=0;entryDy=0;" edge="1" parent="1" source="n5aeBwHTUUPjWI67WGx6-2" target="n5aeBwHTUUPjWI67WGx6-6">
          <mxGeometry relative="1" as="geometry" />
        </mxCell>
        <mxCell id="n5aeBwHTUUPjWI67WGx6-53" style="rounded=0;orthogonalLoop=1;jettySize=auto;html=1;entryX=1;entryY=1;entryDx=0;entryDy=0;" edge="1" parent="1" source="n5aeBwHTUUPjWI67WGx6-2" target="n5aeBwHTUUPjWI67WGx6-17">
          <mxGeometry relative="1" as="geometry" />
        </mxCell>
        <mxCell id="n5aeBwHTUUPjWI67WGx6-54" style="rounded=0;orthogonalLoop=1;jettySize=auto;html=1;" edge="1" parent="1" source="n5aeBwHTUUPjWI67WGx6-2" target="n5aeBwHTUUPjWI67WGx6-20">
          <mxGeometry relative="1" as="geometry" />
        </mxCell>
        <mxCell id="n5aeBwHTUUPjWI67WGx6-55" style="rounded=0;orthogonalLoop=1;jettySize=auto;html=1;" edge="1" parent="1" source="n5aeBwHTUUPjWI67WGx6-2" target="n5aeBwHTUUPjWI67WGx6-8">
          <mxGeometry relative="1" as="geometry" />
        </mxCell>
        <mxCell id="n5aeBwHTUUPjWI67WGx6-56" style="rounded=0;orthogonalLoop=1;jettySize=auto;html=1;" edge="1" parent="1" source="n5aeBwHTUUPjWI67WGx6-2" target="n5aeBwHTUUPjWI67WGx6-19">
          <mxGeometry relative="1" as="geometry" />
        </mxCell>
        <mxCell id="n5aeBwHTUUPjWI67WGx6-2" value="Eléve" style="shape=umlActor;verticalLabelPosition=bottom;verticalAlign=top;html=1;outlineConnect=0;" vertex="1" parent="1">
          <mxGeometry x="550" y="545" width="30" height="60" as="geometry" />
        </mxCell>
        <mxCell id="n5aeBwHTUUPjWI67WGx6-3" value="Se connecter" style="ellipse;whiteSpace=wrap;html=1;" vertex="1" parent="1">
          <mxGeometry x="410" y="120" width="120" height="80" as="geometry" />
        </mxCell>
        <mxCell id="n5aeBwHTUUPjWI67WGx6-4" value="Ajouter une tache&amp;nbsp;" style="ellipse;whiteSpace=wrap;html=1;" vertex="1" parent="1">
          <mxGeometry x="770" y="160" width="120" height="80" as="geometry" />
        </mxCell>
        <mxCell id="n5aeBwHTUUPjWI67WGx6-5" value="Ajouter une tache pour un élève" style="ellipse;whiteSpace=wrap;html=1;" vertex="1" parent="1">
          <mxGeometry x="920" y="250" width="120" height="80" as="geometry" />
        </mxCell>
        <mxCell id="n5aeBwHTUUPjWI67WGx6-6" value="Consulter la messagerie" style="ellipse;whiteSpace=wrap;html=1;" vertex="1" parent="1">
          <mxGeometry x="170" y="442.5" width="120" height="80" as="geometry" />
        </mxCell>
        <mxCell id="n5aeBwHTUUPjWI67WGx6-7" value="Répondre aux messages&amp;nbsp;" style="ellipse;whiteSpace=wrap;html=1;" vertex="1" parent="1">
          <mxGeometry x="320" y="442.5" width="120" height="80" as="geometry" />
        </mxCell>
        <mxCell id="n5aeBwHTUUPjWI67WGx6-8" value="Ajouter un contact" style="ellipse;whiteSpace=wrap;html=1;" vertex="1" parent="1">
          <mxGeometry x="320" y="532.5" width="120" height="80" as="geometry" />
        </mxCell>
        <mxCell id="n5aeBwHTUUPjWI67WGx6-9" value="Consulter le calendrier" style="ellipse;whiteSpace=wrap;html=1;" vertex="1" parent="1">
          <mxGeometry x="730" y="560" width="120" height="80" as="geometry" />
        </mxCell>
        <mxCell id="n5aeBwHTUUPjWI67WGx6-63" style="rounded=0;orthogonalLoop=1;jettySize=auto;html=1;entryX=1;entryY=1;entryDx=0;entryDy=0;dashed=1;dashPattern=8 8;" edge="1" parent="1" source="n5aeBwHTUUPjWI67WGx6-10" target="n5aeBwHTUUPjWI67WGx6-57">
          <mxGeometry relative="1" as="geometry" />
        </mxCell>
        <mxCell id="n5aeBwHTUUPjWI67WGx6-10" value="Fixer un rendez-vous&lt;br&gt;ou évènement" style="ellipse;whiteSpace=wrap;html=1;" vertex="1" parent="1">
          <mxGeometry x="870" y="560" width="120" height="80" as="geometry" />
        </mxCell>
        <mxCell id="n5aeBwHTUUPjWI67WGx6-11" value="Terminer une tâche&amp;nbsp;" style="ellipse;whiteSpace=wrap;html=1;" vertex="1" parent="1">
          <mxGeometry x="850" y="340" width="120" height="80" as="geometry" />
        </mxCell>
        <mxCell id="n5aeBwHTUUPjWI67WGx6-12" value="Consulter les tâches" style="ellipse;whiteSpace=wrap;html=1;" vertex="1" parent="1">
          <mxGeometry x="910" y="160" width="120" height="80" as="geometry" />
        </mxCell>
        <mxCell id="n5aeBwHTUUPjWI67WGx6-60" style="rounded=0;orthogonalLoop=1;jettySize=auto;html=1;dashed=1;dashPattern=8 8;" edge="1" parent="1" source="n5aeBwHTUUPjWI67WGx6-13" target="n5aeBwHTUUPjWI67WGx6-12">
          <mxGeometry relative="1" as="geometry" />
        </mxCell>
        <mxCell id="n5aeBwHTUUPjWI67WGx6-61" style="rounded=0;orthogonalLoop=1;jettySize=auto;html=1;entryX=0.5;entryY=0;entryDx=0;entryDy=0;dashed=1;dashPattern=8 8;" edge="1" parent="1" source="n5aeBwHTUUPjWI67WGx6-13" target="n5aeBwHTUUPjWI67WGx6-6">
          <mxGeometry relative="1" as="geometry" />
        </mxCell>
        <mxCell id="n5aeBwHTUUPjWI67WGx6-62" style="rounded=0;orthogonalLoop=1;jettySize=auto;html=1;entryX=0.5;entryY=0;entryDx=0;entryDy=0;dashed=1;dashPattern=8 8;" edge="1" parent="1" source="n5aeBwHTUUPjWI67WGx6-13" target="n5aeBwHTUUPjWI67WGx6-9">
          <mxGeometry relative="1" as="geometry" />
        </mxCell>
        <mxCell id="n5aeBwHTUUPjWI67WGx6-13" value="Consulter le tableau du bord" style="ellipse;whiteSpace=wrap;html=1;" vertex="1" parent="1">
          <mxGeometry x="620" y="70" width="120" height="80" as="geometry" />
        </mxCell>
        <mxCell id="n5aeBwHTUUPjWI67WGx6-14" value="Annuler un rendez-vous ou évènement" style="ellipse;whiteSpace=wrap;html=1;" vertex="1" parent="1">
          <mxGeometry x="730" y="670" width="120" height="80" as="geometry" />
        </mxCell>
        <mxCell id="n5aeBwHTUUPjWI67WGx6-15" value="Déplacer un rendez-vous ou évènement" style="ellipse;whiteSpace=wrap;html=1;" vertex="1" parent="1">
          <mxGeometry x="870" y="670" width="120" height="80" as="geometry" />
        </mxCell>
        <mxCell id="n5aeBwHTUUPjWI67WGx6-59" style="rounded=0;orthogonalLoop=1;jettySize=auto;html=1;entryX=0.5;entryY=1;entryDx=0;entryDy=0;dashed=1;dashPattern=8 8;" edge="1" parent="1" source="n5aeBwHTUUPjWI67WGx6-17" target="n5aeBwHTUUPjWI67WGx6-57">
          <mxGeometry relative="1" as="geometry" />
        </mxCell>
        <mxCell id="n5aeBwHTUUPjWI67WGx6-17" value="Récupérer mot de passe oublié" style="ellipse;whiteSpace=wrap;html=1;" vertex="1" parent="1">
          <mxGeometry x="190" y="210" width="120" height="80" as="geometry" />
        </mxCell>
        <mxCell id="n5aeBwHTUUPjWI67WGx6-58" value="" style="rounded=0;orthogonalLoop=1;jettySize=auto;html=1;dashed=1;dashPattern=8 8;" edge="1" parent="1" source="n5aeBwHTUUPjWI67WGx6-18" target="n5aeBwHTUUPjWI67WGx6-57">
          <mxGeometry relative="1" as="geometry" />
        </mxCell>
        <mxCell id="n5aeBwHTUUPjWI67WGx6-18" value="Créer un compte" style="ellipse;whiteSpace=wrap;html=1;" vertex="1" parent="1">
          <mxGeometry x="270" y="110" width="120" height="80" as="geometry" />
        </mxCell>
        <mxCell id="n5aeBwHTUUPjWI67WGx6-19" value="Supprimer un contact" style="ellipse;whiteSpace=wrap;html=1;" vertex="1" parent="1">
          <mxGeometry x="250" y="627.5" width="120" height="80" as="geometry" />
        </mxCell>
        <mxCell id="n5aeBwHTUUPjWI67WGx6-20" value="Sélectionner un contact dans l&#39;historique des conversations" style="ellipse;whiteSpace=wrap;html=1;" vertex="1" parent="1">
          <mxGeometry x="170" y="532.5" width="120" height="80" as="geometry" />
        </mxCell>
        <mxCell id="n5aeBwHTUUPjWI67WGx6-21" value="Supprimer une tâche&amp;nbsp;" style="ellipse;whiteSpace=wrap;html=1;" vertex="1" parent="1">
          <mxGeometry x="780" y="250" width="120" height="80" as="geometry" />
        </mxCell>
        <mxCell id="n5aeBwHTUUPjWI67WGx6-25" style="rounded=0;orthogonalLoop=1;jettySize=auto;html=1;exitX=0;exitY=0.3333333333333333;exitDx=0;exitDy=0;exitPerimeter=0;entryX=0.5;entryY=1;entryDx=0;entryDy=0;" edge="1" parent="1" source="n5aeBwHTUUPjWI67WGx6-1" target="n5aeBwHTUUPjWI67WGx6-3">
          <mxGeometry relative="1" as="geometry" />
        </mxCell>
        <mxCell id="n5aeBwHTUUPjWI67WGx6-57" value="Envoyer un email" style="ellipse;whiteSpace=wrap;html=1;" vertex="1" parent="1">
          <mxGeometry x="90" y="60" width="120" height="80" as="geometry" />
        </mxCell>
        <mxCell id="n5aeBwHTUUPjWI67WGx6-64" style="rounded=0;orthogonalLoop=1;jettySize=auto;html=1;entryX=0.723;entryY=0.965;entryDx=0;entryDy=0;dashed=1;dashPattern=8 8;entryPerimeter=0;exitX=0;exitY=0;exitDx=0;exitDy=0;" edge="1" parent="1" source="n5aeBwHTUUPjWI67WGx6-5" target="n5aeBwHTUUPjWI67WGx6-57">
          <mxGeometry relative="1" as="geometry">
            <mxPoint x="897" y="582" as="sourcePoint" />
            <mxPoint x="202" y="138" as="targetPoint" />
          </mxGeometry>
        </mxCell>
      </root>
    </mxGraphModel>
  </diagram>
  <diagram id="uQ2t4zdaK5D5fBxq5fAp" name="Connexion">
    <mxGraphModel dx="958" dy="474" grid="1" gridSize="10" guides="1" tooltips="1" connect="1" arrows="1" fold="1" page="1" pageScale="1" pageWidth="1169" pageHeight="827" math="0" shadow="0">
      <root>
        <mxCell id="0" />
        <mxCell id="1" parent="0" />
        <mxCell id="f3HNBkpj85AW-RkGXAFB-15" style="edgeStyle=none;rounded=0;orthogonalLoop=1;jettySize=auto;html=1;entryX=1;entryY=0;entryDx=0;entryDy=0;exitX=1;exitY=0.3333333333333333;exitDx=0;exitDy=0;exitPerimeter=0;" edge="1" parent="1" source="f3HNBkpj85AW-RkGXAFB-1" target="f3HNBkpj85AW-RkGXAFB-6">
          <mxGeometry relative="1" as="geometry">
            <mxPoint x="390" y="350" as="targetPoint" />
            <mxPoint x="630" y="180" as="sourcePoint" />
          </mxGeometry>
        </mxCell>
        <mxCell id="f3HNBkpj85AW-RkGXAFB-22" style="edgeStyle=none;rounded=0;orthogonalLoop=1;jettySize=auto;html=1;exitX=0;exitY=0.3333333333333333;exitDx=0;exitDy=0;exitPerimeter=0;entryX=0.942;entryY=0.183;entryDx=0;entryDy=0;entryPerimeter=0;" edge="1" parent="1" source="f3HNBkpj85AW-RkGXAFB-1" target="f3HNBkpj85AW-RkGXAFB-20">
          <mxGeometry relative="1" as="geometry">
            <mxPoint x="580" y="290" as="targetPoint" />
          </mxGeometry>
        </mxCell>
        <mxCell id="f3HNBkpj85AW-RkGXAFB-1" value="Tuteur" style="shape=umlActor;verticalLabelPosition=bottom;verticalAlign=top;html=1;outlineConnect=0;" vertex="1" parent="1">
          <mxGeometry x="630" y="160" width="30" height="60" as="geometry" />
        </mxCell>
        <mxCell id="f3HNBkpj85AW-RkGXAFB-2" style="rounded=0;orthogonalLoop=1;jettySize=auto;html=1;exitX=1;exitY=0.3333333333333333;exitDx=0;exitDy=0;exitPerimeter=0;" edge="1" parent="1" source="f3HNBkpj85AW-RkGXAFB-3" target="f3HNBkpj85AW-RkGXAFB-4">
          <mxGeometry relative="1" as="geometry" />
        </mxCell>
        <mxCell id="f3HNBkpj85AW-RkGXAFB-12" style="rounded=0;orthogonalLoop=1;jettySize=auto;html=1;exitX=0;exitY=0.3333333333333333;exitDx=0;exitDy=0;exitPerimeter=0;entryX=0;entryY=0;entryDx=0;entryDy=0;" edge="1" parent="1" source="f3HNBkpj85AW-RkGXAFB-3" target="f3HNBkpj85AW-RkGXAFB-6">
          <mxGeometry relative="1" as="geometry">
            <mxPoint x="820" y="360" as="targetPoint" />
            <mxPoint x="550" y="550" as="sourcePoint" />
          </mxGeometry>
        </mxCell>
        <mxCell id="f3HNBkpj85AW-RkGXAFB-13" style="edgeStyle=none;rounded=0;orthogonalLoop=1;jettySize=auto;html=1;exitX=0;exitY=0.3333333333333333;exitDx=0;exitDy=0;exitPerimeter=0;entryX=0.71;entryY=0.967;entryDx=0;entryDy=0;entryPerimeter=0;" edge="1" parent="1" source="f3HNBkpj85AW-RkGXAFB-3" target="f3HNBkpj85AW-RkGXAFB-8">
          <mxGeometry relative="1" as="geometry">
            <mxPoint x="845.28" y="377" as="sourcePoint" />
            <mxPoint x="599.9952903105063" y="450.5854129068482" as="targetPoint" />
          </mxGeometry>
        </mxCell>
        <mxCell id="f3HNBkpj85AW-RkGXAFB-21" style="edgeStyle=none;rounded=0;orthogonalLoop=1;jettySize=auto;html=1;exitX=0;exitY=0.3333333333333333;exitDx=0;exitDy=0;exitPerimeter=0;" edge="1" parent="1" source="f3HNBkpj85AW-RkGXAFB-3" target="f3HNBkpj85AW-RkGXAFB-20">
          <mxGeometry relative="1" as="geometry" />
        </mxCell>
        <mxCell id="f3HNBkpj85AW-RkGXAFB-3" value="Eléve" style="shape=umlActor;verticalLabelPosition=bottom;verticalAlign=top;html=1;outlineConnect=0;" vertex="1" parent="1">
          <mxGeometry x="630" y="260" width="30" height="60" as="geometry" />
        </mxCell>
        <mxCell id="f3HNBkpj85AW-RkGXAFB-19" style="edgeStyle=none;rounded=0;orthogonalLoop=1;jettySize=auto;html=1;entryX=0.988;entryY=0.728;entryDx=0;entryDy=0;entryPerimeter=0;" edge="1" parent="1" source="f3HNBkpj85AW-RkGXAFB-4" target="f3HNBkpj85AW-RkGXAFB-17">
          <mxGeometry relative="1" as="geometry" />
        </mxCell>
        <mxCell id="f3HNBkpj85AW-RkGXAFB-4" value="Se connecter" style="ellipse;whiteSpace=wrap;html=1;" vertex="1" parent="1">
          <mxGeometry x="750" y="90" width="120" height="80" as="geometry" />
        </mxCell>
        <mxCell id="f3HNBkpj85AW-RkGXAFB-5" style="rounded=0;orthogonalLoop=1;jettySize=auto;html=1;entryX=0;entryY=0.5;entryDx=0;entryDy=0;dashed=1;dashPattern=8 8;exitX=0.58;exitY=0.988;exitDx=0;exitDy=0;exitPerimeter=0;" edge="1" parent="1" source="f3HNBkpj85AW-RkGXAFB-10" target="f3HNBkpj85AW-RkGXAFB-6">
          <mxGeometry relative="1" as="geometry">
            <mxPoint x="240" y="170" as="sourcePoint" />
          </mxGeometry>
        </mxCell>
        <mxCell id="f3HNBkpj85AW-RkGXAFB-6" value="Récupérer mot de passe oublié" style="ellipse;whiteSpace=wrap;html=1;" vertex="1" parent="1">
          <mxGeometry x="590" y="414" width="120" height="80" as="geometry" />
        </mxCell>
        <mxCell id="f3HNBkpj85AW-RkGXAFB-7" value="" style="rounded=0;orthogonalLoop=1;jettySize=auto;html=1;dashed=1;dashPattern=8 8;" edge="1" parent="1" source="f3HNBkpj85AW-RkGXAFB-8" target="f3HNBkpj85AW-RkGXAFB-10">
          <mxGeometry relative="1" as="geometry" />
        </mxCell>
        <mxCell id="f3HNBkpj85AW-RkGXAFB-18" style="edgeStyle=none;rounded=0;orthogonalLoop=1;jettySize=auto;html=1;" edge="1" parent="1" source="f3HNBkpj85AW-RkGXAFB-8" target="f3HNBkpj85AW-RkGXAFB-17">
          <mxGeometry relative="1" as="geometry" />
        </mxCell>
        <mxCell id="f3HNBkpj85AW-RkGXAFB-8" value="Créer un compte" style="ellipse;whiteSpace=wrap;html=1;" vertex="1" parent="1">
          <mxGeometry x="400" y="80" width="120" height="80" as="geometry" />
        </mxCell>
        <mxCell id="f3HNBkpj85AW-RkGXAFB-9" style="rounded=0;orthogonalLoop=1;jettySize=auto;html=1;entryX=0.213;entryY=0.913;entryDx=0;entryDy=0;entryPerimeter=0;exitX=1;exitY=0.3333333333333333;exitDx=0;exitDy=0;exitPerimeter=0;" edge="1" parent="1" source="f3HNBkpj85AW-RkGXAFB-1" target="f3HNBkpj85AW-RkGXAFB-4">
          <mxGeometry relative="1" as="geometry" />
        </mxCell>
        <mxCell id="f3HNBkpj85AW-RkGXAFB-10" value="Envoyer un email" style="ellipse;whiteSpace=wrap;html=1;" vertex="1" parent="1">
          <mxGeometry x="330" y="300" width="120" height="80" as="geometry" />
        </mxCell>
        <mxCell id="f3HNBkpj85AW-RkGXAFB-11" style="rounded=0;orthogonalLoop=1;jettySize=auto;html=1;entryX=0.707;entryY=0.983;entryDx=0;entryDy=0;entryPerimeter=0;exitX=0;exitY=0.3333333333333333;exitDx=0;exitDy=0;exitPerimeter=0;" edge="1" parent="1" source="f3HNBkpj85AW-RkGXAFB-1" target="f3HNBkpj85AW-RkGXAFB-8">
          <mxGeometry relative="1" as="geometry">
            <mxPoint x="630" y="180" as="sourcePoint" />
            <mxPoint x="480" y="210" as="targetPoint" />
          </mxGeometry>
        </mxCell>
        <mxCell id="f3HNBkpj85AW-RkGXAFB-16" style="rounded=0;orthogonalLoop=1;jettySize=auto;html=1;entryX=0.72;entryY=0.972;entryDx=0;entryDy=0;dashed=1;dashPattern=8 8;entryPerimeter=0;exitX=1;exitY=0.5;exitDx=0;exitDy=0;" edge="1" parent="1" source="f3HNBkpj85AW-RkGXAFB-6" target="f3HNBkpj85AW-RkGXAFB-4">
          <mxGeometry relative="1" as="geometry">
            <mxPoint x="170" y="149" as="sourcePoint" />
            <mxPoint x="331" y="339" as="targetPoint" />
          </mxGeometry>
        </mxCell>
        <mxCell id="f3HNBkpj85AW-RkGXAFB-17" value="Dashboard" style="ellipse;whiteSpace=wrap;html=1;" vertex="1" parent="1">
          <mxGeometry x="585" y="20" width="120" height="80" as="geometry" />
        </mxCell>
        <mxCell id="f3HNBkpj85AW-RkGXAFB-23" style="edgeStyle=none;rounded=0;orthogonalLoop=1;jettySize=auto;html=1;entryX=1.013;entryY=0.688;entryDx=0;entryDy=0;entryPerimeter=0;dashed=1;dashPattern=8 8;" edge="1" parent="1" source="f3HNBkpj85AW-RkGXAFB-20" target="f3HNBkpj85AW-RkGXAFB-10">
          <mxGeometry relative="1" as="geometry" />
        </mxCell>
        <mxCell id="f3HNBkpj85AW-RkGXAFB-20" value="Demande mot de passe oublié" style="ellipse;whiteSpace=wrap;html=1;" vertex="1" parent="1">
          <mxGeometry x="450" y="260" width="120" height="80" as="geometry" />
        </mxCell>
      </root>
    </mxGraphModel>
  </diagram>
  <diagram id="teen0Qnr0NiTAiWwp3Yc" name="Dashboard">
    <mxGraphModel dx="958" dy="474" grid="1" gridSize="10" guides="1" tooltips="1" connect="1" arrows="1" fold="1" page="1" pageScale="1" pageWidth="1169" pageHeight="827" math="0" shadow="0">
      <root>
        <mxCell id="0" />
        <mxCell id="1" parent="0" />
        <mxCell id="ld2G0SDBW2MLxcUM211L-8" style="edgeStyle=none;rounded=0;orthogonalLoop=1;jettySize=auto;html=1;exitX=0;exitY=0.3333333333333333;exitDx=0;exitDy=0;exitPerimeter=0;entryX=1;entryY=0;entryDx=0;entryDy=0;" edge="1" parent="1" source="ld2G0SDBW2MLxcUM211L-1" target="ld2G0SDBW2MLxcUM211L-3">
          <mxGeometry relative="1" as="geometry" />
        </mxCell>
        <mxCell id="ld2G0SDBW2MLxcUM211L-11" style="edgeStyle=none;rounded=0;orthogonalLoop=1;jettySize=auto;html=1;exitX=1;exitY=0.3333333333333333;exitDx=0;exitDy=0;exitPerimeter=0;" edge="1" parent="1" source="ld2G0SDBW2MLxcUM211L-1" target="ld2G0SDBW2MLxcUM211L-5">
          <mxGeometry relative="1" as="geometry" />
        </mxCell>
        <mxCell id="ld2G0SDBW2MLxcUM211L-13" style="edgeStyle=none;rounded=0;orthogonalLoop=1;jettySize=auto;html=1;exitX=0;exitY=0.3333333333333333;exitDx=0;exitDy=0;exitPerimeter=0;" edge="1" parent="1" source="ld2G0SDBW2MLxcUM211L-1" target="ld2G0SDBW2MLxcUM211L-4">
          <mxGeometry relative="1" as="geometry">
            <mxPoint x="570" y="380" as="targetPoint" />
          </mxGeometry>
        </mxCell>
        <mxCell id="ld2G0SDBW2MLxcUM211L-1" value="Tuteur" style="shape=umlActor;verticalLabelPosition=bottom;verticalAlign=top;html=1;outlineConnect=0;" vertex="1" parent="1">
          <mxGeometry x="420" y="230" width="30" height="60" as="geometry" />
        </mxCell>
        <mxCell id="ld2G0SDBW2MLxcUM211L-9" style="edgeStyle=none;rounded=0;orthogonalLoop=1;jettySize=auto;html=1;exitX=0;exitY=0.3333333333333333;exitDx=0;exitDy=0;exitPerimeter=0;entryX=1;entryY=0.5;entryDx=0;entryDy=0;" edge="1" parent="1" source="ld2G0SDBW2MLxcUM211L-2" target="ld2G0SDBW2MLxcUM211L-3">
          <mxGeometry relative="1" as="geometry">
            <mxPoint x="320" y="320" as="targetPoint" />
          </mxGeometry>
        </mxCell>
        <mxCell id="ld2G0SDBW2MLxcUM211L-10" style="edgeStyle=none;rounded=0;orthogonalLoop=1;jettySize=auto;html=1;exitX=1;exitY=0.3333333333333333;exitDx=0;exitDy=0;exitPerimeter=0;" edge="1" parent="1" source="ld2G0SDBW2MLxcUM211L-2" target="ld2G0SDBW2MLxcUM211L-5">
          <mxGeometry relative="1" as="geometry" />
        </mxCell>
        <mxCell id="ld2G0SDBW2MLxcUM211L-12" style="edgeStyle=none;rounded=0;orthogonalLoop=1;jettySize=auto;html=1;exitX=0;exitY=0.3333333333333333;exitDx=0;exitDy=0;exitPerimeter=0;entryX=0.5;entryY=1;entryDx=0;entryDy=0;" edge="1" parent="1" source="ld2G0SDBW2MLxcUM211L-2" target="ld2G0SDBW2MLxcUM211L-4">
          <mxGeometry relative="1" as="geometry" />
        </mxCell>
        <mxCell id="ld2G0SDBW2MLxcUM211L-2" value="Eléve" style="shape=umlActor;verticalLabelPosition=bottom;verticalAlign=top;html=1;outlineConnect=0;" vertex="1" parent="1">
          <mxGeometry x="420" y="348" width="30" height="60" as="geometry" />
        </mxCell>
        <mxCell id="ld2G0SDBW2MLxcUM211L-3" value="Consulter la messagerie" style="ellipse;whiteSpace=wrap;html=1;" vertex="1" parent="1">
          <mxGeometry x="180" y="374" width="120" height="80" as="geometry" />
        </mxCell>
        <mxCell id="ld2G0SDBW2MLxcUM211L-4" value="Consulter le calendrier" style="ellipse;whiteSpace=wrap;html=1;" vertex="1" parent="1">
          <mxGeometry x="250" y="120" width="120" height="80" as="geometry" />
        </mxCell>
        <mxCell id="ld2G0SDBW2MLxcUM211L-5" value="Consulter les tâches" style="ellipse;whiteSpace=wrap;html=1;" vertex="1" parent="1">
          <mxGeometry x="570" y="230" width="120" height="80" as="geometry" />
        </mxCell>
      </root>
    </mxGraphModel>
  </diagram>
  <diagram id="l61aKZvHvQzdf6RARgL0" name="Chat">
    <mxGraphModel dx="958" dy="474" grid="1" gridSize="10" guides="1" tooltips="1" connect="1" arrows="1" fold="1" page="1" pageScale="1" pageWidth="1169" pageHeight="827" math="0" shadow="0">
      <root>
        <mxCell id="0" />
        <mxCell id="1" parent="0" />
        <mxCell id="viCUx4Xvm-Uy7cIPKMzc-8" style="edgeStyle=none;rounded=0;orthogonalLoop=1;jettySize=auto;html=1;entryX=1;entryY=0.5;entryDx=0;entryDy=0;exitX=0;exitY=0.3333333333333333;exitDx=0;exitDy=0;exitPerimeter=0;" edge="1" parent="1" source="viCUx4Xvm-Uy7cIPKMzc-1" target="viCUx4Xvm-Uy7cIPKMzc-3">
          <mxGeometry relative="1" as="geometry">
            <mxPoint x="550" y="270" as="sourcePoint" />
          </mxGeometry>
        </mxCell>
        <mxCell id="viCUx4Xvm-Uy7cIPKMzc-9" style="edgeStyle=none;rounded=0;orthogonalLoop=1;jettySize=auto;html=1;entryX=1;entryY=0.5;entryDx=0;entryDy=0;" edge="1" parent="1" source="viCUx4Xvm-Uy7cIPKMzc-1" target="viCUx4Xvm-Uy7cIPKMzc-4">
          <mxGeometry relative="1" as="geometry" />
        </mxCell>
        <mxCell id="viCUx4Xvm-Uy7cIPKMzc-10" style="edgeStyle=none;rounded=0;orthogonalLoop=1;jettySize=auto;html=1;" edge="1" parent="1" source="viCUx4Xvm-Uy7cIPKMzc-1" target="viCUx4Xvm-Uy7cIPKMzc-7">
          <mxGeometry relative="1" as="geometry" />
        </mxCell>
        <mxCell id="viCUx4Xvm-Uy7cIPKMzc-11" style="edgeStyle=none;rounded=0;orthogonalLoop=1;jettySize=auto;html=1;" edge="1" parent="1" source="viCUx4Xvm-Uy7cIPKMzc-1" target="viCUx4Xvm-Uy7cIPKMzc-5">
          <mxGeometry relative="1" as="geometry" />
        </mxCell>
        <mxCell id="viCUx4Xvm-Uy7cIPKMzc-12" style="edgeStyle=none;rounded=0;orthogonalLoop=1;jettySize=auto;html=1;" edge="1" parent="1" source="viCUx4Xvm-Uy7cIPKMzc-1" target="viCUx4Xvm-Uy7cIPKMzc-6">
          <mxGeometry relative="1" as="geometry" />
        </mxCell>
        <mxCell id="viCUx4Xvm-Uy7cIPKMzc-1" value="Tuteur" style="shape=umlActor;verticalLabelPosition=bottom;verticalAlign=top;html=1;outlineConnect=0;" vertex="1" parent="1">
          <mxGeometry x="550" y="250" width="30" height="60" as="geometry" />
        </mxCell>
        <mxCell id="viCUx4Xvm-Uy7cIPKMzc-13" style="edgeStyle=none;rounded=0;orthogonalLoop=1;jettySize=auto;html=1;entryX=0;entryY=0;entryDx=0;entryDy=0;" edge="1" parent="1" source="viCUx4Xvm-Uy7cIPKMzc-2" target="viCUx4Xvm-Uy7cIPKMzc-5">
          <mxGeometry relative="1" as="geometry" />
        </mxCell>
        <mxCell id="viCUx4Xvm-Uy7cIPKMzc-14" style="edgeStyle=none;rounded=0;orthogonalLoop=1;jettySize=auto;html=1;entryX=0;entryY=0.5;entryDx=0;entryDy=0;" edge="1" parent="1" source="viCUx4Xvm-Uy7cIPKMzc-2" target="viCUx4Xvm-Uy7cIPKMzc-4">
          <mxGeometry relative="1" as="geometry" />
        </mxCell>
        <mxCell id="viCUx4Xvm-Uy7cIPKMzc-15" style="edgeStyle=none;rounded=0;orthogonalLoop=1;jettySize=auto;html=1;entryX=0;entryY=0.5;entryDx=0;entryDy=0;" edge="1" parent="1" source="viCUx4Xvm-Uy7cIPKMzc-2" target="viCUx4Xvm-Uy7cIPKMzc-3">
          <mxGeometry relative="1" as="geometry" />
        </mxCell>
        <mxCell id="viCUx4Xvm-Uy7cIPKMzc-16" style="edgeStyle=none;rounded=0;orthogonalLoop=1;jettySize=auto;html=1;" edge="1" parent="1" source="viCUx4Xvm-Uy7cIPKMzc-2" target="viCUx4Xvm-Uy7cIPKMzc-7">
          <mxGeometry relative="1" as="geometry" />
        </mxCell>
        <mxCell id="viCUx4Xvm-Uy7cIPKMzc-17" style="edgeStyle=none;rounded=0;orthogonalLoop=1;jettySize=auto;html=1;" edge="1" parent="1" source="viCUx4Xvm-Uy7cIPKMzc-2" target="viCUx4Xvm-Uy7cIPKMzc-6">
          <mxGeometry relative="1" as="geometry" />
        </mxCell>
        <mxCell id="viCUx4Xvm-Uy7cIPKMzc-2" value="Eléve" style="shape=umlActor;verticalLabelPosition=bottom;verticalAlign=top;html=1;outlineConnect=0;" vertex="1" parent="1">
          <mxGeometry x="70" y="270" width="30" height="60" as="geometry" />
        </mxCell>
        <mxCell id="viCUx4Xvm-Uy7cIPKMzc-20" style="edgeStyle=none;rounded=0;orthogonalLoop=1;jettySize=auto;html=1;exitX=0.5;exitY=0;exitDx=0;exitDy=0;entryX=0.5;entryY=1;entryDx=0;entryDy=0;" edge="1" parent="1" source="viCUx4Xvm-Uy7cIPKMzc-3" target="viCUx4Xvm-Uy7cIPKMzc-4">
          <mxGeometry relative="1" as="geometry" />
        </mxCell>
        <mxCell id="viCUx4Xvm-Uy7cIPKMzc-3" value="Lire les messages" style="ellipse;whiteSpace=wrap;html=1;" vertex="1" parent="1">
          <mxGeometry x="250" y="290" width="120" height="80" as="geometry" />
        </mxCell>
        <mxCell id="viCUx4Xvm-Uy7cIPKMzc-4" value="Ecrire un message&amp;nbsp;" style="ellipse;whiteSpace=wrap;html=1;" vertex="1" parent="1">
          <mxGeometry x="250" y="190" width="120" height="80" as="geometry" />
        </mxCell>
        <mxCell id="viCUx4Xvm-Uy7cIPKMzc-5" value="Ajouter un contact" style="ellipse;whiteSpace=wrap;html=1;" vertex="1" parent="1">
          <mxGeometry x="260" y="500" width="120" height="80" as="geometry" />
        </mxCell>
        <mxCell id="viCUx4Xvm-Uy7cIPKMzc-6" value="Supprimer un contact" style="ellipse;whiteSpace=wrap;html=1;" vertex="1" parent="1">
          <mxGeometry x="260" y="600" width="120" height="80" as="geometry" />
        </mxCell>
        <mxCell id="viCUx4Xvm-Uy7cIPKMzc-19" style="edgeStyle=none;rounded=0;orthogonalLoop=1;jettySize=auto;html=1;exitX=0.5;exitY=0;exitDx=0;exitDy=0;entryX=0.5;entryY=1;entryDx=0;entryDy=0;" edge="1" parent="1" source="viCUx4Xvm-Uy7cIPKMzc-7" target="viCUx4Xvm-Uy7cIPKMzc-3">
          <mxGeometry relative="1" as="geometry" />
        </mxCell>
        <mxCell id="viCUx4Xvm-Uy7cIPKMzc-7" value="Sélectionner un contact dans l&#39;historique des conversations" style="ellipse;whiteSpace=wrap;html=1;" vertex="1" parent="1">
          <mxGeometry x="250" y="410" width="120" height="80" as="geometry" />
        </mxCell>
      </root>
    </mxGraphModel>
  </diagram>
</mxfile>
